<?xml version="1.0" encoding="UTF-8" standalone="no"?>
<svg
   xmlns:dc="http://purl.org/dc/elements/1.1/"
   xmlns:cc="http://creativecommons.org/ns#"
   xmlns:rdf="http://www.w3.org/1999/02/22-rdf-syntax-ns#"
   xmlns:svg="http://www.w3.org/2000/svg"
   xmlns="http://www.w3.org/2000/svg"
   viewBox="0 0 904 506.66666"
   height="506.66666"
   width="904"
   xml:space="preserve"
   id="svg2"
   version="1.1"><metadata
     id="metadata8"><rdf:RDF><cc:Work
         rdf:about=""><dc:format>image/svg+xml</dc:format><dc:type
           rdf:resource="http://purl.org/dc/dcmitype/StillImage" /></cc:Work></rdf:RDF></metadata><defs
     id="defs6"><clipPath
       id="clipPath26"
       clipPathUnits="userSpaceOnUse"><path
         id="path24"
         d="m 413.898,2802.57 c 0,357.22 289.575,646.79 646.792,646.79 357.22,0 646.79,-289.57 646.79,-646.79 0,-357.22 -289.57,-646.79 -646.79,-646.79 -357.217,0 -646.792,289.57 -646.792,646.79" /></clipPath><clipPath
       id="clipPath32"
       clipPathUnits="userSpaceOnUse"><path
         id="path30"
         d="m 413.898,2802.57 c 0,357.22 289.575,646.79 646.792,646.79 357.22,0 646.79,-289.57 646.79,-646.79 0,-357.22 -289.57,-646.79 -646.79,-646.79 -357.217,0 -646.792,289.57 -646.792,646.79 z" /></clipPath></defs><g
     transform="matrix(1.3333333,0,0,-1.3333333,0,506.66665)"
     id="g10"><g
       transform="scale(0.1)"
       id="g12"><path
         id="path14"
         style="fill:#ffffff;fill-opacity:1;fill-rule:nonzero;stroke:none"
         d="M 0,3800 H 6780 V 0 H 0 v 3800" /><path
         id="path16"
         style="fill:#a6caf0;fill-opacity:1;fill-rule:nonzero;stroke:none"
         d="m 5927.27,2984.62 c -24,23 -45,31 -65,26 51,-66 100,-135 147,-206 77,-118 137,-256 178,-413 10,-37 18,-78 23,-122 21,-194 4,-366 -53,-517 -52,-142 -123,-267 -211,-375 -89,-108 -190,-205 -302,-288 -113,-84 -236,-159.003 -368,-226.003 -130,-64 -271,-119 -423,-164 -151,-45 -308,-82 -472,-112 -88,-16 -177,-29 -268,-40 -150,-18 -314,-24 -490,-17 28,-12 65,-16 110,-14 39,2 76,2 110,0 46,-4 89,-4 130,-3 193,8 373,27 540,57 167,29 324,67 472,113 152,48 293,104 422,168 133,67 255,143 367,227.003 111,86 213,181 303,286 4,4 7,8 10,12 89,107 159,233 209,376 26,77 44,159 51,248 9,105 5,199 -10,281 -12,63 -28,120 -48,171 -28,75 -61,142 -99,202 -78,122 -165,231 -263,330" /><path
         id="path18"
         style="fill:#60a0c0;fill-opacity:1;fill-rule:nonzero;stroke:none"
         d="m 5389.27,2397.62 c -76,98 -165,184 -269,256 -134,92 -274,172 -421,241 -46,21 -92,41 -138,61 -141,58 -287,108 -440,148 -158,42 -321,75 -489,100 -91,13 -181,24 -270,33 -188,19 -375,25 -559,18 -193,-8 -376,-23 -550,-48 -85,-13 -169,-26 -251,-42 -129,-24 -250,-53 -363,-86 19,-40 33,-82 43,-126 127,29 258,53 391,74 172,27 355,43 550,48 182,4 368,-3 559,-23 174,-17 344,-44 509,-81 157,-34 307,-78 451,-132 65,-24 127,-52 186,-83 70,-35 140,-75 207,-120 136,-88 251,-196 347,-325 96,-131 139,-276 128,-437 -6,-89 -29,-174 -71,-254 -17,-32 -36,-61 -57,-88 -87,-110 -193,-202 -318,-274 -123,-72 -263,-130 -420,-173 -152,-42 -326,-64 -521,-68 -203,-3 -383,14 -541,50 -23,6 -44,11 -62,15 -158,43 -298,101 -419,176 -31,20 -67,34 -108,43 40,-106 109,-185 206,-237 32,-16 64,-33 96,-48 134,-65.003 283,-113.003 448,-145.003 164,-33 344,-48 540,-46 33,1 66,1 100,2 100,2 191,10 271,24 172,31 330,73 476,128 140,53.003 273,116.003 398,190.003 30,18 59,37 88,57 35,23 67,49 98,77 77,70 144,148 200,233 89,135 130,283 124,443 -6,156 -55,295 -149,419" /><g
         id="g20"><g
           clip-path="url(#clipPath26)"
           id="g22"><g
             clip-path="url(#clipPath32)"
             id="g28"><path
               id="path34"
               style="fill:#60a0c0;fill-opacity:1;fill-rule:nonzero;stroke:none"
               d="M 413.898,3449.36 H 1707.48 V 2155.78 H 413.898 v 1293.58" /><path
               id="path36"
               style="fill:#60a0c0;fill-opacity:1;fill-rule:nonzero;stroke:none"
               d="m -129.242,2965.93 c -9.11,521.2 434.945,951.57 991.84,961.29 556.892,9.72 1015.712,-404.9 1024.822,-926.09 9.11,-521.2 -434.94,-951.57 -991.838,-961.29 -556.894,-9.72 -1015.719,404.9 -1024.824,926.09" /><path
               id="path38"
               style="fill:#62a1c1;fill-opacity:1;fill-rule:nonzero;stroke:none"
               d="m -118.895,2966.13 c -9.015,515.98 430.606,942.05 981.934,951.67 551.331,9.62 1005.561,-400.86 1014.581,-916.84 9.01,-515.98 -430.6,-942.05 -981.932,-951.67 -551.333,-9.62 -1005.567,400.85 -1014.583,916.84" /><path
               id="path40"
               style="fill:#63a2c1;fill-opacity:1;fill-rule:nonzero;stroke:none"
               d="m -108.797,2966.32 c -8.922,510.77 426.258,932.53 972.016,942.06 545.761,9.52 995.401,-396.81 1004.321,-907.58 8.92,-510.77 -426.25,-932.54 -972.009,-942.06 -545.761,-9.52 -995.406,396.81 -1004.328,907.58" /><path
               id="path42"
               style="fill:#65a3c2;fill-opacity:1;fill-rule:nonzero;stroke:none"
               d="m -98.6992,2966.21 c -8.8278,505.55 421.9102,923.01 962.0972,932.43 540.182,9.43 985.242,-392.75 994.072,-898.3 8.83,-505.56 -421.91,-923.02 -962.095,-932.45 -540.187,-9.42 -985.2422,392.76 -994.0742,898.32" /><path
               id="path44"
               style="fill:#66a4c3;fill-opacity:1;fill-rule:nonzero;stroke:none"
               d="m -88.6523,2966.4 c -8.7422,500.34 417.5543,913.5 952.1793,922.82 534.623,9.33 975.093,-388.71 983.833,-889.05 8.75,-500.34 -417.55,-913.5 -952.172,-922.82 -534.622,-9.33 -975.0943,388.7 -983.8403,889.05" /><path
               id="path46"
               style="fill:#68a5c3;fill-opacity:1;fill-rule:nonzero;stroke:none"
               d="m -78.5547,2966.59 c -8.6484,495.13 413.2067,903.98 942.2577,913.21 529.057,9.23 964.937,-384.66 973.587,-879.79 8.65,-495.13 -413.21,-903.99 -942.259,-913.21 -529.051,-9.23 -964.9333,384.66 -973.5857,879.79" /><path
               id="path48"
               style="fill:#6aa6c4;fill-opacity:1;fill-rule:nonzero;stroke:none"
               d="m -68.457,2967.04 c -8.5547,489.91 408.859,894.47 932.34,903.6 523.487,9.14 954.777,-380.6 963.327,-870.53 8.56,-489.91 -408.85,-894.47 -932.335,-903.6 -523.484,-9.14 -954.7734,380.6 -963.332,870.53" /><path
               id="path50"
               style="fill:#6ba7c4;fill-opacity:1;fill-rule:nonzero;stroke:none"
               d="m -58.6563,2967.23 c -8.4726,484.7 404.5003,884.96 922.4103,893.99 517.906,9.04 944.616,-376.56 953.086,-861.27 8.47,-484.71 -404.5,-884.96 -922.414,-893.99 -517.91,-9.04 -944.6135,376.56 -953.0823,861.27" /><path
               id="path52"
               style="fill:#6da8c5;fill-opacity:1;fill-rule:nonzero;stroke:none"
               d="m -48.3086,2967.12 c -8.3789,479.49 400.1566,875.43 912.4996,884.37 512.349,8.94 934.469,-372.51 942.849,-852 8.37,-479.5 -400.16,-875.44 -912.509,-884.38 -512.343,-8.93 -934.4607,372.51 -942.8396,852.01" /><path
               id="path54"
               style="fill:#6ea8c6;fill-opacity:1;fill-rule:nonzero;stroke:none"
               d="m -38.2109,2967.31 c -8.2852,474.28 395.8089,865.92 902.5819,874.76 506.769,8.84 924.299,-368.46 932.589,-842.75 8.28,-474.28 -395.81,-865.92 -902.585,-874.76 -506.773,-8.84 -924.3008,368.46 -932.5859,842.75" /><path
               id="path56"
               style="fill:#70a9c6;fill-opacity:1;fill-rule:nonzero;stroke:none"
               d="m -28.4141,2967.5 c -8.1992,469.07 391.4491,856.41 892.6561,865.15 501.208,8.74 914.138,-364.42 922.338,-833.49 8.2,-469.07 -391.45,-856.41 -892.654,-865.15 -501.203,-8.74 -914.1448,364.42 -922.3401,833.49" /><path
               id="path58"
               style="fill:#72aac7;fill-opacity:1;fill-rule:nonzero;stroke:none"
               d="m -18.0664,2967.69 c -8.1055,463.86 387.1094,846.89 882.7464,855.54 495.64,8.65 903.99,-360.37 912.1,-824.23 8.1,-463.86 -387.11,-846.89 -882.749,-855.54 -495.636,-8.64 -903.99194,360.37 -912.0974,824.23" /><path
               id="path60"
               style="fill:#73abc8;fill-opacity:1;fill-rule:nonzero;stroke:none"
               d="m -7.96875,2968.13 c -8.01175,458.66 382.76175,837.39 872.82775,845.94 490.071,8.55 893.831,-356.32 901.841,-814.96 8.01,-458.66 -382.75,-837.39 -872.825,-845.94 -490.066,-8.55 -893.8320312,356.31 -901.84375,814.96" /><path
               id="path62"
               style="fill:#75acc8;fill-opacity:1;fill-rule:nonzero;stroke:none"
               d="m 2.12891,2968.03 c -7.91797,453.43 378.41009,827.85 862.91009,836.31 484.501,8.45 883.671,-352.27 891.591,-805.7 7.92,-453.43 -378.42,-827.85 -862.911,-836.31 -484.496,-8.45 -883.6682,352.26 -891.59009,805.7" /><path
               id="path64"
               style="fill:#76adc9;fill-opacity:1;fill-rule:nonzero;stroke:none"
               d="m 12.1758,2968.22 c -7.83205,448.22 374.0582,818.34 852.9922,826.69 478.932,8.36 873.522,-348.21 881.352,-796.43 7.84,-448.23 -374.06,-818.35 -852.989,-826.7 C 414.602,2163.42 20.0078,2520 12.1758,2968.22" /><path
               id="path66"
               style="fill:#78aeca;fill-opacity:1;fill-rule:nonzero;stroke:none"
               d="m 22.2734,2968.41 c -7.7382,443.01 369.7106,808.83 843.0746,817.09 473.362,8.25 863.362,-344.18 871.102,-787.19 7.74,-443.01 -369.71,-808.83 -843.075,-817.08 -473.359,-8.26 -863.3594,344.16 -871.1016,787.18" /><path
               id="path68"
               style="fill:#7aafca;fill-opacity:1;fill-rule:nonzero;stroke:none"
               d="m 32.3711,2968.6 c -7.6445,437.8 365.3629,799.31 833.1559,807.47 467.793,8.16 853.203,-340.12 860.843,-777.92 7.65,-437.8 -365.36,-799.31 -833.151,-807.47 C 425.43,2182.52 40.0195,2530.8 32.3711,2968.6" /><path
               id="path70"
               style="fill:#7bb0cb;fill-opacity:1;fill-rule:nonzero;stroke:none"
               d="m 42.168,2968.79 c -7.5586,432.59 361.004,789.8 823.227,797.86 462.215,8.06 843.045,-336.07 850.605,-768.66 7.56,-432.6 -361.01,-789.8 -823.227,-797.86 -462.222,-8.06 -843.0425,336.07 -850.605,768.66" /><path
               id="path72"
               style="fill:#7db1cb;fill-opacity:1;fill-rule:nonzero;stroke:none"
               d="m 52.5195,2968.93 c -7.4687,427.38 356.6605,780.28 813.3165,788.25 456.654,7.97 832.894,-332.01 840.354,-759.39 7.47,-427.37 -356.66,-780.27 -813.315,-788.25 -456.656,-7.97 -832.8906,332.02 -840.3555,759.39" /><path
               id="path74"
               style="fill:#7eb2cc;fill-opacity:1;fill-rule:nonzero;stroke:none"
               d="m 62.6172,2969.13 c -7.375,422.16 352.3128,770.76 803.3988,778.63 451.084,7.87 822.724,-327.97 830.104,-750.13 7.37,-422.17 -352.32,-770.77 -803.401,-778.64 -451.082,-7.87 -822.7268,327.97 -830.1018,750.14" /><path
               id="path76"
               style="fill:#80b3cd;fill-opacity:1;fill-rule:nonzero;stroke:none"
               d="m 72.4141,2969.32 c -7.2891,416.95 347.9529,761.25 793.4689,769.02 445.507,7.77 812.567,-323.92 819.857,-740.88 7.29,-416.95 -347.95,-761.25 -793.467,-769.01 -445.515,-7.78 -812.5738,323.92 -819.8589,740.87" /><path
               id="path78"
               style="fill:#81b4cd;fill-opacity:1;fill-rule:nonzero;stroke:none"
               d="m 82.7617,2969.51 c -7.1953,411.74 343.6093,751.74 783.5583,759.41 439.95,7.67 802.42,-319.88 809.62,-731.62 7.19,-411.74 -343.61,-751.73 -783.565,-759.41 -439.949,-7.67 -802.418,319.88 -809.6133,731.62" /><path
               id="path80"
               style="fill:#83b5ce;fill-opacity:1;fill-rule:nonzero;stroke:none"
               d="m 92.8594,2969.7 c -7.1016,406.53 339.2616,742.23 773.6406,749.8 434.38,7.57 792.26,-315.83 799.36,-722.36 7.1,-406.53 -339.26,-742.22 -773.641,-749.8 C 457.84,2239.77 99.9609,2563.17 92.8594,2969.7" /><path
               id="path82"
               style="fill:#84b6cf;fill-opacity:1;fill-rule:nonzero;stroke:none"
               d="m 102.957,2969.59 c -7.0078,401.32 334.918,732.7 763.723,740.18 428.81,7.48 782.1,-311.78 789.11,-713.09 7.01,-401.32 -334.92,-732.7 -763.727,-740.18 -428.805,-7.48 -782.098,311.78 -789.106,713.09" /><path
               id="path84"
               style="fill:#86b7cf;fill-opacity:1;fill-rule:nonzero;stroke:none"
               d="m 113.004,2970.04 c -6.922,396.1 330.562,723.18 753.805,730.57 423.241,7.38 771.951,-307.72 778.871,-703.83 6.92,-396.1 -330.56,-723.18 -753.801,-730.57 -423.242,-7.39 -771.953,307.72 -778.875,703.83" /><path
               id="path86"
               style="fill:#88b8d0;fill-opacity:1;fill-rule:nonzero;stroke:none"
               d="m 123.102,2970.23 c -6.829,390.89 326.214,713.67 743.886,720.96 417.672,7.29 761.792,-303.68 768.622,-694.57 6.83,-390.89 -326.22,-713.67 -743.887,-720.96 -417.676,-7.29 -761.789,303.68 -768.621,694.57" /><path
               id="path88"
               style="fill:#89b9d0;fill-opacity:1;fill-rule:nonzero;stroke:none"
               d="m 133.199,2970.42 c -6.734,385.68 321.867,704.16 733.969,711.35 412.102,7.19 751.622,-299.63 758.362,-685.32 6.74,-385.68 -321.87,-704.15 -733.964,-711.34 -412.101,-7.19 -751.628,299.63 -758.367,685.31" /><path
               id="path90"
               style="fill:#8bbad1;fill-opacity:1;fill-rule:nonzero;stroke:none"
               d="m 142.996,2970.61 c -6.648,380.47 317.512,694.64 724.039,701.74 406.535,7.09 741.465,-295.59 748.125,-676.06 6.64,-380.47 -317.51,-694.64 -724.043,-701.73 -406.531,-7.1 -741.469,295.58 -748.121,676.05" /><path
               id="path92"
               style="fill:#8cbbd2;fill-opacity:1;fill-rule:nonzero;stroke:none"
               d="m 153.344,2970.8 c -6.555,375.26 313.168,685.13 714.133,692.13 400.963,6.99 731.313,-291.54 737.873,-666.8 6.56,-375.26 -313.16,-685.13 -714.127,-692.12 -400.965,-6.99 -731.321,291.53 -737.879,666.79" /><path
               id="path94"
               style="fill:#8ebcd2;fill-opacity:1;fill-rule:nonzero;stroke:none"
               d="m 163.445,2970.7 c -6.468,370.04 308.817,675.6 704.211,682.5 395.394,6.89 721.154,-287.49 727.624,-657.54 6.46,-370.04 -308.82,-675.6 -704.214,-682.5 -395.394,-6.89 -721.156,287.49 -727.621,657.54" /><path
               id="path96"
               style="fill:#90bdd3;fill-opacity:1;fill-rule:nonzero;stroke:none"
               d="m 173.242,2971.14 c -6.379,364.83 304.457,666.09 694.281,672.9 389.827,6.8 710.997,-283.43 717.377,-648.27 6.38,-364.83 -304.46,-666.09 -694.283,-672.89 -389.824,-6.81 -711,283.42 -717.375,648.26" /><path
               id="path98"
               style="fill:#91bdd4;fill-opacity:1;fill-rule:nonzero;stroke:none"
               d="m 183.59,2971.33 c -6.285,359.62 300.113,656.58 684.375,663.28 384.255,6.71 700.845,-279.38 707.135,-639 6.28,-359.63 -300.12,-656.58 -684.377,-663.29 -384.258,-6.7 -700.848,279.39 -707.133,639.01" /><path
               id="path100"
               style="fill:#93bed4;fill-opacity:1;fill-rule:nonzero;stroke:none"
               d="m 193.688,2971.52 c -6.192,354.41 295.765,647.07 674.457,653.67 378.685,6.61 690.685,-275.33 696.875,-629.74 6.19,-354.41 -295.77,-647.07 -674.454,-653.68 -378.687,-6.6 -690.687,275.34 -696.878,629.75" /><path
               id="path102"
               style="fill:#94bfd5;fill-opacity:1;fill-rule:nonzero;stroke:none"
               d="m 203.785,2971.71 c -6.097,349.2 291.418,637.55 664.539,644.06 373.116,6.51 680.526,-271.29 686.626,-620.49 6.09,-349.2 -291.42,-637.55 -664.54,-644.06 -373.117,-6.51 -680.527,271.3 -686.625,620.49" /><path
               id="path104"
               style="fill:#96c0d6;fill-opacity:1;fill-rule:nonzero;stroke:none"
               d="m 213.832,2971.61 c -6.012,343.98 287.066,628.02 654.617,634.43 367.551,6.41 670.381,-267.24 676.391,-611.22 6.01,-343.99 -287.07,-628.03 -654.617,-634.44 -367.555,-6.41 -670.379,267.24 -676.391,611.23" /><path
               id="path106"
               style="fill:#98c1d6;fill-opacity:1;fill-rule:nonzero;stroke:none"
               d="m 223.93,2971.8 c -5.918,338.77 282.718,618.5 644.699,624.82 361.981,6.31 660.221,-263.19 666.141,-601.97 5.92,-338.77 -282.72,-618.51 -644.704,-624.82 -361.98,-6.31 -660.218,263.19 -666.136,601.97" /><path
               id="path108"
               style="fill:#99c2d7;fill-opacity:1;fill-rule:nonzero;stroke:none"
               d="m 234.027,2972.24 c -5.824,333.56 278.371,609 634.782,615.22 356.411,6.22 650.051,-259.14 655.881,-592.7 5.83,-333.56 -278.37,-609 -634.78,-615.22 -356.41,-6.22 -650.055,259.14 -655.883,592.7" /><path
               id="path110"
               style="fill:#9bc3d7;fill-opacity:1;fill-rule:nonzero;stroke:none"
               d="m 244.074,2972.43 c -5.738,328.35 274.02,599.49 624.864,605.61 350.852,6.12 639.912,-255.09 645.652,-583.44 5.73,-328.35 -274.02,-599.49 -624.867,-605.61 -350.848,-6.12 -639.907,255.09 -645.649,583.44" /><path
               id="path112"
               style="fill:#9cc4d8;fill-opacity:1;fill-rule:nonzero;stroke:none"
               d="m 254.176,2972.62 c -5.649,323.14 269.668,589.98 614.941,596 345.273,6.02 629.743,-251.05 635.393,-574.19 5.65,-323.14 -269.67,-589.97 -614.944,-595.99 -345.273,-6.03 -629.746,251.04 -635.39,574.18" /><path
               id="path114"
               style="fill:#9ec5d9;fill-opacity:1;fill-rule:nonzero;stroke:none"
               d="m 264.273,2972.52 c -5.554,317.92 265.321,580.44 605.024,586.37 339.703,5.92 619.583,-247 625.143,-564.92 5.55,-317.92 -265.33,-580.45 -605.03,-586.37 -339.703,-5.93 -619.586,246.99 -625.137,564.92" /><path
               id="path116"
               style="fill:#a0c6d9;fill-opacity:1;fill-rule:nonzero;stroke:none"
               d="m 274.07,2972.71 c -5.468,312.71 260.961,570.93 595.094,576.75 334.136,5.83 609.426,-242.94 614.896,-555.66 5.47,-312.71 -260.96,-570.92 -595.095,-576.75 -334.137,-5.83 -609.43,242.94 -614.895,555.66" /><path
               id="path118"
               style="fill:#a1c7da;fill-opacity:1;fill-rule:nonzero;stroke:none"
               d="m 284.418,2972.9 c -5.375,307.5 256.621,561.42 585.187,567.14 328.565,5.73 599.275,-238.9 604.645,-546.4 5.38,-307.5 -256.61,-561.41 -585.184,-567.14 -328.566,-5.73 -599.273,238.89 -604.648,546.4" /><path
               id="path120"
               style="fill:#a3c8db;fill-opacity:1;fill-rule:nonzero;stroke:none"
               d="m 294.516,2973.34 c -5.282,302.29 252.269,551.91 575.269,557.54 322.995,5.64 589.115,-234.84 594.395,-537.13 5.28,-302.29 -252.27,-551.91 -575.27,-557.54 -322.996,-5.64 -589.113,234.84 -594.394,537.13" /><path
               id="path122"
               style="fill:#a4c9db;fill-opacity:1;fill-rule:nonzero;stroke:none"
               d="m 304.613,2973.53 c -5.191,297.08 247.922,542.4 565.352,547.93 317.425,5.54 578.945,-230.79 584.145,-527.87 5.19,-297.08 -247.93,-542.4 -565.356,-547.93 -317.426,-5.54 -578.953,230.79 -584.141,527.87" /><path
               id="path124"
               style="fill:#a6cadc;fill-opacity:1;fill-rule:nonzero;stroke:none"
               d="m 314.66,2973.42 c -5.101,291.87 243.57,532.87 555.434,538.31 311.866,5.44 568.806,-226.75 573.906,-518.61 5.1,-291.86 -243.57,-532.87 -555.434,-538.31 -311.859,-5.43 -568.804,226.75 -573.906,518.61" /><path
               id="path126"
               style="fill:#a7cbdc;fill-opacity:1;fill-rule:nonzero;stroke:none"
               d="m 324.758,2973.62 c -5.008,286.65 239.222,523.35 545.515,528.69 306.287,5.34 558.637,-222.7 563.657,-509.35 5,-286.66 -239.23,-523.35 -545.52,-528.7 -306.289,-5.34 -558.644,222.7 -563.652,509.36" /><path
               id="path128"
               style="fill:#a9ccdd;fill-opacity:1;fill-rule:nonzero;stroke:none"
               d="m 334.855,2973.81 c -4.914,281.44 234.875,513.84 535.598,519.08 300.717,5.24 548.477,-218.65 553.397,-500.09 4.92,-281.45 -234.87,-513.84 -535.596,-519.09 -300.719,-5.24 -548.481,218.66 -553.399,500.1" /><path
               id="path130"
               style="fill:#abcdde;fill-opacity:1;fill-rule:nonzero;stroke:none"
               d="m 344.902,2974.25 c -4.828,276.23 230.524,504.33 525.676,509.48 295.152,5.15 538.332,-214.6 543.172,-490.83 4.82,-276.23 -230.52,-504.33 -525.68,-509.48 -295.156,-5.15 -538.336,214.6 -543.168,490.83" /><path
               id="path132"
               style="fill:#accede;fill-opacity:1;fill-rule:nonzero;stroke:none"
               d="m 355,2974.44 c -4.734,271.02 226.176,494.82 515.758,499.87 289.582,5.05 528.172,-210.55 532.912,-481.57 4.74,-271.02 -226.17,-494.81 -515.756,-499.87 C 598.328,2487.82 359.738,2703.42 355,2974.44" /><path
               id="path134"
               style="fill:#aecfdf;fill-opacity:1;fill-rule:nonzero;stroke:none"
               d="m 365.102,2974.33 c -4.645,265.81 221.82,485.3 505.836,490.25 284.012,4.96 518.012,-206.5 522.652,-472.31 4.65,-265.8 -221.82,-485.29 -505.832,-490.24 -284.016,-4.96 -518.016,206.5 -522.656,472.3" /><path
               id="path136"
               style="fill:#afd0e0;fill-opacity:1;fill-rule:nonzero;stroke:none"
               d="m 374.895,2974.52 c -4.555,260.6 217.468,475.78 495.91,480.64 278.445,4.86 507.855,-202.46 512.415,-463.05 4.56,-260.59 -217.47,-475.77 -495.911,-480.63 -278.446,-4.86 -507.856,202.45 -512.414,463.04" /><path
               id="path138"
               style="fill:#b1d1e0;fill-opacity:1;fill-rule:nonzero;stroke:none"
               d="m 385.246,2974.71 c -4.465,255.39 213.121,466.27 486,471.03 272.884,4.76 497.704,-198.41 502.164,-453.79 4.47,-255.38 -213.12,-466.26 -485.996,-471.02 -272.879,-4.76 -497.703,198.41 -502.168,453.78" /><path
               id="path140"
               style="fill:#b3d2e1;fill-opacity:1;fill-rule:nonzero;stroke:none"
               d="m 395.344,2974.91 c -4.371,250.17 208.773,456.75 476.082,461.41 267.304,4.66 487.544,-194.36 491.914,-444.53 4.37,-250.18 -208.77,-456.75 -476.086,-461.41 -267.305,-4.66 -487.539,194.36 -491.91,444.53" /><path
               id="path142"
               style="fill:#b4d2e2;fill-opacity:1;fill-rule:nonzero;stroke:none"
               d="m 405.441,2975.35 c -4.281,244.96 204.426,447.24 466.164,451.81 261.735,4.56 477.385,-190.31 481.665,-435.27 4.27,-244.96 -204.43,-447.23 -466.168,-451.8 -261.739,-4.57 -477.383,190.3 -481.661,435.26" /><path
               id="path144"
               style="fill:#b6d3e2;fill-opacity:1;fill-rule:nonzero;stroke:none"
               d="m 415.488,2975.24 c -4.191,239.74 200.075,437.71 456.246,442.19 256.176,4.46 467.236,-186.26 471.426,-426 4.19,-239.75 -200.07,-437.72 -456.246,-442.18 -256.172,-4.47 -467.234,186.25 -471.426,425.99" /><path
               id="path146"
               style="fill:#b7d4e3;fill-opacity:1;fill-rule:nonzero;stroke:none"
               d="m 425.586,2975.43 c -4.098,234.53 195.727,428.2 446.328,432.57 250.606,4.38 457.066,-182.2 461.176,-416.73 4.09,-234.54 -195.73,-428.2 -446.332,-432.57 -250.602,-4.38 -457.074,182.2 -461.172,416.73" /><path
               id="path148"
               style="fill:#b9d5e3;fill-opacity:1;fill-rule:nonzero;stroke:none"
               d="m 435.684,2975.63 c -4.004,229.32 191.379,418.68 436.41,422.95 245.036,4.28 446.906,-178.16 450.916,-407.48 4.01,-229.32 -191.38,-418.68 -436.408,-422.96 -245.032,-4.27 -446.911,178.16 -450.918,407.49" /><path
               id="path150"
               style="fill:#bbd6e4;fill-opacity:1;fill-rule:nonzero;stroke:none"
               d="m 445.73,2975.82 c -3.917,224.11 187.028,409.17 426.493,413.34 239.467,4.18 436.757,-174.11 440.677,-398.22 3.92,-224.12 -187.02,-409.17 -426.486,-413.35 -239.465,-4.17 -436.762,174.12 -440.684,398.23" /><path
               id="path152"
               style="fill:#bcd7e5;fill-opacity:1;fill-rule:nonzero;stroke:none"
               d="m 455.828,2976.01 c -3.824,218.9 182.676,399.65 416.574,403.73 233.898,4.08 426.598,-170.07 430.428,-388.97 3.83,-218.89 -182.68,-399.65 -416.572,-403.73 -233.895,-4.08 -426.602,170.07 -430.43,388.97" /><path
               id="path154"
               style="fill:#bed8e5;fill-opacity:1;fill-rule:nonzero;stroke:none"
               d="m 465.926,2976.15 c -3.731,213.69 178.328,390.14 406.656,394.12 228.328,3.98 416.438,-166.01 420.168,-379.69 3.74,-213.69 -178.32,-390.13 -406.648,-394.12 -228.325,-3.98 -416.442,166 -420.176,379.69" /><path
               id="path156"
               style="fill:#bfd9e6;fill-opacity:1;fill-rule:nonzero;stroke:none"
               d="m 475.723,2976.34 c -3.645,208.48 173.972,380.62 396.726,384.51 222.751,3.88 406.281,-161.96 409.931,-370.43 3.64,-208.48 -173.97,-380.62 -396.728,-384.51 -222.754,-3.89 -406.281,161.96 -409.929,370.43" /><path
               id="path158"
               style="fill:#c1dae7;fill-opacity:1;fill-rule:nonzero;stroke:none"
               d="m 486.074,2976.54 c -3.554,203.26 169.625,371.1 386.817,374.89 217.189,3.79 396.129,-157.91 399.679,-361.18 3.56,-203.26 -169.62,-371.1 -386.812,-374.89 -217.188,-3.79 -396.129,157.91 -399.684,361.18" /><path
               id="path160"
               style="fill:#c3dbe7;fill-opacity:1;fill-rule:nonzero;stroke:none"
               d="m 496.172,2976.73 c -3.461,198.05 165.277,361.59 376.894,365.28 211.624,3.69 385.974,-153.87 389.434,-351.92 3.46,-198.05 -165.28,-361.59 -376.898,-365.28 -211.618,-3.69 -385.969,153.87 -389.43,351.92" /><path
               id="path162"
               style="fill:#c4dce8;fill-opacity:1;fill-rule:nonzero;stroke:none"
               d="m 506.27,2976.92 c -3.372,192.84 160.929,352.08 366.976,355.67 206.054,3.59 375.804,-149.82 379.184,-342.66 3.36,-192.84 -160.94,-352.08 -366.985,-355.67 -206.047,-3.59 -375.808,149.82 -379.175,342.66" /><path
               id="path164"
               style="fill:#c6dde8;fill-opacity:1;fill-rule:nonzero;stroke:none"
               d="m 516.316,2977.11 c -3.281,187.63 156.579,342.56 357.059,346.06 200.485,3.49 365.665,-145.78 368.945,-333.41 3.28,-187.63 -156.58,-342.56 -357.062,-346.05 -200.481,-3.5 -365.66,145.77 -368.942,333.4" /><path
               id="path166"
               style="fill:#c7dee9;fill-opacity:1;fill-rule:nonzero;stroke:none"
               d="m 526.414,2977.25 c -3.187,182.42 152.231,333.05 347.141,336.45 194.905,3.4 355.495,-141.72 358.685,-324.13 3.19,-182.41 -152.22,-333.04 -347.138,-336.44 -194.911,-3.4 -355.5,141.71 -358.688,324.12" /><path
               id="path168"
               style="fill:#c9dfea;fill-opacity:1;fill-rule:nonzero;stroke:none"
               d="m 536.512,2977.45 c -3.094,177.2 147.883,323.52 337.222,326.82 189.336,3.31 345.336,-137.66 348.436,-314.86 3.1,-177.21 -147.88,-323.53 -337.225,-326.84 -189.34,-3.3 -345.336,137.67 -348.433,314.88" /><path
               id="path170"
               style="fill:#cbe0ea;fill-opacity:1;fill-rule:nonzero;stroke:none"
               d="m 546.559,2977.64 c -3.008,171.99 143.527,314.01 327.304,317.22 183.777,3.2 335.187,-133.63 338.197,-305.62 3.01,-171.99 -143.52,-314.01 -327.302,-317.22 -183.778,-3.2 -335.192,133.62 -338.199,305.62" /><path
               id="path172"
               style="fill:#cce1eb;fill-opacity:1;fill-rule:nonzero;stroke:none"
               d="m 556.656,2977.83 c -2.914,166.78 139.18,304.5 317.387,307.6 178.207,3.11 325.027,-129.57 327.947,-296.35 2.92,-166.78 -139.18,-304.5 -317.388,-307.61 -178.204,-3.1 -325.028,129.58 -327.946,296.36" /><path
               id="path174"
               style="fill:#cee2ec;fill-opacity:1;fill-rule:nonzero;stroke:none"
               d="m 566.754,2978.02 c -2.824,161.57 134.832,294.98 307.469,297.99 172.637,3.01 314.867,-125.53 317.687,-287.1 2.83,-161.56 -134.83,-294.98 -307.465,-297.99 -172.632,-3.01 -314.867,125.53 -317.691,287.1" /><path
               id="path176"
               style="fill:#cfe3ec;fill-opacity:1;fill-rule:nonzero;stroke:none"
               d="m 576.551,2977.91 c -2.735,156.36 130.476,285.46 297.539,288.37 167.07,2.91 304.71,-121.48 307.45,-277.83 2.73,-156.35 -130.48,-285.46 -297.54,-288.37 -167.066,-2.91 -304.711,121.48 -307.449,277.83" /><path
               id="path178"
               style="fill:#d1e4ed;fill-opacity:1;fill-rule:nonzero;stroke:none"
               d="m 586.898,2978.36 c -2.64,151.14 126.133,275.94 287.633,278.76 161.499,2.82 294.559,-117.42 297.199,-268.56 2.65,-151.15 -126.13,-275.95 -287.628,-278.77 -161.5,-2.82 -294.559,117.42 -297.204,268.57" /><path
               id="path180"
               style="fill:#d3e5ee;fill-opacity:1;fill-rule:nonzero;stroke:none"
               d="m 596.996,2978.55 c -2.551,145.93 121.785,266.43 277.715,269.15 155.929,2.72 284.399,-113.37 286.949,-259.31 2.55,-145.93 -121.78,-266.43 -277.711,-269.15 -155.929,-2.72 -284.398,113.37 -286.953,259.31" /><path
               id="path182"
               style="fill:#d4e5ee;fill-opacity:1;fill-rule:nonzero;stroke:none"
               d="m 607.094,2978.74 c -2.457,140.72 117.437,256.92 267.793,259.54 150.363,2.62 274.243,-109.33 276.693,-250.05 2.46,-140.72 -117.43,-256.92 -267.787,-259.54 -150.359,-2.62 -274.238,109.33 -276.699,250.05" /><path
               id="path184"
               style="fill:#d6e6ef;fill-opacity:1;fill-rule:nonzero;stroke:none"
               d="m 617.145,2978.93 c -2.372,135.51 113.082,247.41 257.875,249.93 144.79,2.52 264.09,-105.28 266.46,-240.79 2.37,-135.51 -113.08,-247.41 -257.875,-249.93 -144.792,-2.52 -264.089,105.28 -266.46,240.79" /><path
               id="path186"
               style="fill:#d7e7ef;fill-opacity:1;fill-rule:nonzero;stroke:none"
               d="m 627.242,2978.82 c -2.277,130.29 108.735,237.88 247.957,240.31 139.221,2.42 253.931,-101.23 256.201,-231.53 2.28,-130.29 -108.73,-237.88 -247.951,-240.3 -139.222,-2.43 -253.929,101.23 -256.207,231.52" /><path
               id="path188"
               style="fill:#d9e8f0;fill-opacity:1;fill-rule:nonzero;stroke:none"
               d="m 637.34,2979.01 c -2.188,125.08 104.383,228.37 238.035,230.7 133.655,2.33 243.765,-97.19 245.955,-222.27 2.19,-125.08 -104.39,-228.37 -238.041,-230.69 -133.648,-2.33 -243.766,97.18 -245.949,222.26" /><path
               id="path190"
               style="fill:#dbe9f1;fill-opacity:1;fill-rule:nonzero;stroke:none"
               d="m 647.387,2979.46 c -2.098,119.87 100.031,218.85 228.117,221.09 128.086,2.23 233.626,-93.13 235.716,-213 2.1,-119.87 -100.03,-218.86 -228.115,-221.09 -128.085,-2.24 -233.621,93.12 -235.718,213" /><path
               id="path192"
               style="fill:#dceaf1;fill-opacity:1;fill-rule:nonzero;stroke:none"
               d="m 657.484,2979.65 c -2.004,114.66 95.684,209.34 218.2,211.48 122.515,2.13 223.456,-89.08 225.466,-203.74 2,-114.67 -95.69,-209.35 -218.201,-211.48 -122.515,-2.14 -223.457,89.07 -225.465,203.74" /><path
               id="path194"
               style="fill:#deebf2;fill-opacity:1;fill-rule:nonzero;stroke:none"
               d="m 667.582,2979.84 c -1.914,109.45 91.336,199.83 208.281,201.86 116.946,2.04 213.297,-85.03 215.207,-194.48 1.91,-109.45 -91.332,-199.83 -208.277,-201.86 -116.945,-2.04 -213.297,85.03 -215.211,194.48" /><path
               id="path196"
               style="fill:#dfecf3;fill-opacity:1;fill-rule:nonzero;stroke:none"
               d="m 677.379,2979.73 c -1.824,104.23 86.98,190.3 198.351,192.24 111.375,1.94 203.14,-80.98 204.97,-185.21 1.82,-104.24 -86.981,-190.31 -198.356,-192.24 -111.375,-1.95 -203.137,80.98 -204.965,185.21" /><path
               id="path198"
               style="fill:#e1edf3;fill-opacity:1;fill-rule:nonzero;stroke:none"
               d="m 687.727,2979.92 c -1.731,99.03 82.636,180.79 188.445,182.63 105.808,1.84 192.988,-76.93 194.718,-175.96 1.74,-99.02 -82.632,-180.79 -188.441,-182.63 -105.808,-1.84 -192.988,76.94 -194.722,175.96" /><path
               id="path200"
               style="fill:#e3eef4;fill-opacity:1;fill-rule:nonzero;stroke:none"
               d="m 697.824,2980.11 c -1.636,93.82 78.289,171.28 178.528,173.02 100.238,1.75 182.828,-72.89 184.468,-166.7 1.64,-93.81 -78.289,-171.27 -178.527,-173.02 -100.238,-1.74 -182.824,72.89 -184.469,166.7" /><path
               id="path202"
               style="fill:#e4eff4;fill-opacity:1;fill-rule:nonzero;stroke:none"
               d="m 707.926,2980.55 c -1.551,88.61 73.937,161.77 168.605,163.42 94.668,1.66 172.669,-68.83 174.209,-157.43 1.55,-88.61 -73.935,-161.77 -168.603,-163.42 -94.668,-1.65 -172.664,68.84 -174.211,157.43" /><path
               id="path204"
               style="fill:#e6f0f5;fill-opacity:1;fill-rule:nonzero;stroke:none"
               d="m 717.973,2980.75 c -1.461,83.39 69.586,152.25 158.687,153.8 89.102,1.56 162.52,-64.78 163.98,-148.17 1.46,-83.4 -69.589,-152.25 -158.691,-153.81 -89.101,-1.55 -162.515,64.79 -163.976,148.18" /><path
               id="path206"
               style="fill:#e7f1f6;fill-opacity:1;fill-rule:nonzero;stroke:none"
               d="m 728.07,2980.64 c -1.367,78.17 65.235,142.72 148.77,144.18 83.531,1.45 152.36,-60.74 153.72,-138.91 1.37,-78.18 -65.236,-142.73 -148.767,-144.18 -83.531,-1.46 -152.355,60.73 -153.723,138.91" /><path
               id="path208"
               style="fill:#e9f2f6;fill-opacity:1;fill-rule:nonzero;stroke:none"
               d="m 738.168,2980.83 c -1.277,72.96 60.887,133.21 138.848,134.57 77.964,1.36 142.194,-56.69 143.474,-129.65 1.27,-72.97 -60.892,-133.21 -138.853,-134.57 -77.961,-1.36 -142.196,56.69 -143.469,129.65" /><path
               id="path210"
               style="fill:#ebf3f7;fill-opacity:1;fill-rule:nonzero;stroke:none"
               d="m 748.215,2981.02 c -1.188,67.75 56.535,123.7 128.933,124.96 72.395,1.26 132.052,-52.64 133.232,-120.4 1.19,-67.75 -56.532,-123.69 -128.931,-124.95 -72.394,-1.26 -132.047,52.64 -133.234,120.39" /><path
               id="path212"
               style="fill:#ecf4f8;fill-opacity:1;fill-rule:nonzero;stroke:none"
               d="m 758.313,2981.21 c -1.098,62.55 52.187,114.18 119.015,115.35 66.824,1.16 121.883,-48.6 122.982,-111.14 1.09,-62.54 -52.193,-114.18 -119.017,-115.34 -66.824,-1.17 -121.887,48.6 -122.98,111.13" /><path
               id="path214"
               style="fill:#eef5f8;fill-opacity:1;fill-rule:nonzero;stroke:none"
               d="m 768.41,2981.66 c -1.004,57.33 47.84,104.67 109.094,105.74 61.254,1.06 111.726,-44.54 112.726,-101.87 1.004,-57.33 -47.839,-104.67 -109.093,-105.74 -61.254,-1.07 -111.723,44.54 -112.727,101.87" /><path
               id="path216"
               style="fill:#eff6f9;fill-opacity:1;fill-rule:nonzero;stroke:none"
               d="m 778.207,2981.55 c -0.914,52.11 43.481,95.15 99.168,96.11 55.684,0.98 101.566,-40.48 102.48,-92.6 0.918,-52.11 -43.48,-95.15 -99.167,-96.11 -55.684,-0.98 -101.563,40.48 -102.481,92.6" /><path
               id="path218"
               style="fill:#f1f7fa;fill-opacity:1;fill-rule:nonzero;stroke:none"
               d="m 788.555,2981.74 c -0.821,46.9 39.14,85.63 89.258,86.51 50.121,0.87 91.417,-36.45 92.238,-83.35 0.824,-46.9 -39.137,-85.63 -89.258,-86.51 -50.117,-0.87 -91.414,36.45 -92.238,83.35" /><path
               id="path220"
               style="fill:#f2f8fa;fill-opacity:1;fill-rule:nonzero;stroke:none"
               d="m 798.656,2981.93 c -0.73,41.7 34.789,76.12 79.336,76.89 44.551,0.78 81.254,-32.39 81.985,-74.09 0.73,-41.69 -34.789,-76.11 -79.34,-76.89 -44.547,-0.77 -81.254,32.4 -81.981,74.09" /><path
               id="path222"
               style="fill:#f4f9fb;fill-opacity:1;fill-rule:nonzero;stroke:none"
               d="m 808.754,2982.13 c -0.641,36.48 30.441,66.6 69.418,67.27 38.976,0.68 71.09,-28.35 71.73,-64.83 0.637,-36.48 -30.441,-66.6 -69.422,-67.28 -38.976,-0.67 -71.089,28.35 -71.726,64.84" /><path
               id="path224"
               style="fill:#f6fafb;fill-opacity:1;fill-rule:nonzero;stroke:none"
               d="m 818.797,2982.32 c -0.547,31.27 26.09,57.09 59.504,57.66 33.414,0.58 60.945,-24.3 61.496,-55.57 0.551,-31.27 -26.09,-57.09 -59.5,-57.67 -33.414,-0.58 -60.945,24.31 -61.5,55.58" /><path
               id="path226"
               style="fill:#f7fafc;fill-opacity:1;fill-rule:nonzero;stroke:none"
               d="m 828.898,2982.46 c -0.46,26.05 21.739,47.56 49.582,48.05 27.844,0.49 50.782,-20.24 51.243,-46.3 0.457,-26.05 -21.743,-47.57 -49.586,-48.05 -27.84,-0.48 -50.782,20.24 -51.239,46.3" /><path
               id="path228"
               style="fill:#f9fbfd;fill-opacity:1;fill-rule:nonzero;stroke:none"
               d="m 838.996,2982.65 c -0.367,20.84 17.391,38.05 39.664,38.44 22.27,0.39 40.621,-16.2 40.988,-37.04 0.364,-20.84 -17.394,-38.05 -39.668,-38.44 -22.269,-0.39 -40.621,16.19 -40.984,37.04" /><path
               id="path230"
               style="fill:#fafcfd;fill-opacity:1;fill-rule:nonzero;stroke:none"
               d="m 849.043,2982.84 c -0.277,15.64 13.039,28.54 29.746,28.83 16.707,0.29 30.473,-12.15 30.75,-27.78 0.281,-15.64 -13.035,-28.54 -29.746,-28.83 -16.703,-0.29 -30.473,12.15 -30.75,27.78" /><path
               id="path232"
               style="fill:#fcfdfe;fill-opacity:1;fill-rule:nonzero;stroke:none"
               d="m 859.141,2983.04 c -0.188,10.42 8.691,19.02 19.828,19.21 11.133,0.19 20.312,-8.11 20.496,-18.52 0.187,-10.43 -8.692,-19.03 -19.828,-19.22 -11.133,-0.19 -20.313,8.1 -20.496,18.53" /><path
               id="path234"
               style="fill:#fefeff;fill-opacity:1;fill-rule:nonzero;stroke:none"
               d="m 869.238,2983.23 c -0.093,5.21 4.344,9.51 9.907,9.6 5.566,0.09 10.156,-4.06 10.246,-9.27 0.093,-5.21 -4.344,-9.51 -9.907,-9.6 -5.566,-0.09 -10.152,4.06 -10.246,9.27" /></g></g></g><path
         id="path236"
         style="fill:#003366;fill-opacity:1;fill-rule:nonzero;stroke:none"
         d="m 4507.27,2043.62 c 76,71 114,169 114,296 0,123 -35,217 -104,284 -70,66 -175,100 -315,100 h -643 v -1251 h 388 v 464 h 212 c 156,0 272,36 348,107 z m -560,146 v 280 h 110 c 73,0 122,-14 148,-41 26,-28 39,-61 39,-100 0,-41 -15,-74 -45,-100 -30,-26 -82,-39 -157,-39 h -95" /><path
         id="path238"
         style="fill:#003366;fill-opacity:1;fill-rule:nonzero;stroke:none"
         d="m 5275.27,2723.62 h -422 l -470,-1251 h 395 l 61,206 h 438 l 63,-206 h 405 z m -78,-774 h -275 l 138,450 z" /><path
         id="path240"
         style="fill:#003366;fill-opacity:1;fill-rule:nonzero;stroke:none"
         d="m 3347.27,1595.62 c 48,50 85,107 108,173 23,66 34,136 34,210 v 745 h -386 v -763 c 0,-70 -18,-123 -56,-161 -38,-38 -90,-57 -157,-57 -67,0 -119,19 -157,57 -38,39 -57,92 -57,161 v 763 h -386 v -745 c 0,-62 12,-133 36,-212 15,-49 42,-98 83,-144 39,-47 84,-83 132,-108 49,-25 109,-42 181,-51 71,-8 138,-13 199,-13 105,0 195,14 270,42 54,20 106,55 156,103" /><path
         id="path242"
         style="fill:#003366;fill-opacity:1;fill-rule:nonzero;stroke:none"
         d="m 1389.27,2693.62 c -75,-32 -131,-77 -168,-135 -37,-56 -56,-117 -56,-181 0,-98 36,-179 109,-242 72,-63 193,-114 363,-152 103,-23 169,-47 197,-73 29,-25 43,-54 43,-86 0,-35 -15,-65 -44,-91 -30,-25 -73,-38 -129,-38 -73,0 -130,25 -170,76 -24,31 -40,77 -48,136 l -368,-23 c 11,-126 57,-230 139,-312 82,-82 229,-123 442,-123 121,0 222,17 301,52 80,35 142,87 186,154 45,68 67,142 67,222 0,68 -17,130 -50,186 -33,55 -86,101 -159,138 -74,37 -195,74 -364,111 -68,14 -111,29 -129,46 -19,16 -29,34 -29,54 0,27 12,50 34,69 23,19 57,29 102,29 55,0 97,-13 129,-39 30,-25 51,-66 61,-123 l 364,22 c -16,129 -66,224 -149,283 -85,60 -207,90 -367,90 -130,0 -232,-17 -307,-50" /></g></g></svg>